<?xml version="1.0" standalone="no"?>
<!DOCTYPE svg PUBLIC "-//W3C//DTD SVG 20010904//EN"
 "http://www.w3.org/TR/2001/REC-SVG-20010904/DTD/svg10.dtd">
<svg version="1.0" xmlns="http://www.w3.org/2000/svg"
 width="1268.000000pt" height="1268.000000pt" viewBox="0 0 1268.000000 1268.000000"
 preserveAspectRatio="xMidYMid meet">

<g transform="translate(0.000000,1268.000000) scale(0.100000,-0.100000)"
fill="#000000" stroke="none">
<path d="M880 12543 c-41 -15 -40 67 -40 -2409 0 -2144 2 -2374 16 -2388 14
-14 76 -16 538 -16 393 0 525 3 534 12 9 9 12 126 12 466 l0 455 31 91 c17 50
40 107 50 126 11 19 19 41 19 48 0 7 11 34 25 60 14 26 25 54 25 63 0 9 7 22
14 29 8 6 22 34 31 61 9 27 20 51 25 54 4 3 30 48 56 101 27 52 56 110 66 127
9 18 36 63 60 99 62 96 120 186 143 222 21 33 140 195 174 236 215 261 435
486 651 667 158 132 206 167 404 299 16 10 39 26 51 34 12 8 35 24 51 34 16
10 41 27 56 38 15 10 38 23 50 28 13 6 46 23 73 40 89 52 357 182 480 233 33
13 78 32 100 42 22 10 74 28 115 41 74 23 81 24 511 24 348 0 439 3 454 13 17
13 18 40 17 528 -1 513 -1 514 -23 532 -20 16 -148 17 -2388 16 -1301 0 -2373
-3 -2381 -6z m1965 -1093 c12 -20 -8 -61 -39 -75 -17 -9 -52 -34 -77 -58 -25
-23 -84 -76 -130 -117 -141 -126 -380 -370 -502 -513 -65 -75 -121 -138 -126
-142 -27 -16 -31 47 -31 452 0 433 1 442 40 456 28 10 859 7 865 -3z"/>
<path d="M6790 12532 c-21 -17 -21 -17 -21 -531 -1 -483 0 -516 17 -528 14
-10 110 -13 449 -13 426 0 432 0 511 -24 72 -22 141 -47 219 -81 17 -8 68 -30
115 -50 47 -20 92 -40 100 -46 8 -5 62 -33 119 -62 112 -56 164 -84 226 -122
22 -13 58 -34 80 -46 22 -12 63 -39 92 -60 29 -22 55 -39 59 -39 4 0 32 -19
63 -42 30 -24 68 -51 84 -61 16 -10 34 -22 40 -27 7 -6 57 -46 112 -90 158
-127 178 -145 365 -330 196 -195 425 -465 530 -624 8 -13 24 -36 34 -52 11
-16 29 -45 41 -64 12 -19 30 -48 41 -64 60 -92 211 -364 231 -418 9 -24 24
-54 34 -68 9 -14 20 -36 24 -50 4 -14 13 -35 21 -46 7 -12 22 -46 33 -75 10
-30 34 -92 52 -139 l33 -85 3 -469 c2 -323 7 -474 14 -483 17 -20 1061 -19
1078 1 16 19 16 4773 0 4792 -10 12 -396 14 -2394 14 -2250 0 -2384 -1 -2405
-18z m3694 -1094 c14 -20 16 -78 16 -448 0 -265 -4 -431 -10 -440 -11 -17 -21
-7 -160 156 -84 98 -423 441 -513 519 -33 28 -77 67 -100 88 -23 21 -59 47
-79 58 -30 15 -38 25 -38 48 0 15 3 30 6 34 4 3 199 6 435 7 l428 0 15 -22z"/>
<path d="M5903 10820 c-61 -4 -116 -10 -120 -13 -5 -3 -76 -15 -157 -27 -82
-11 -154 -24 -160 -27 -6 -4 -56 -17 -111 -29 -102 -22 -196 -47 -250 -65
-170 -60 -280 -100 -290 -109 -7 -5 -33 -17 -60 -24 -26 -8 -54 -21 -63 -29
-10 -8 -29 -17 -44 -21 -15 -3 -44 -17 -64 -31 -20 -14 -40 -25 -45 -25 -16 0
-269 -145 -339 -195 -24 -16 -54 -38 -69 -47 -164 -108 -333 -252 -527 -450
-142 -144 -314 -340 -314 -357 0 -5 -10 -20 -22 -34 -36 -41 -56 -68 -89 -122
-18 -27 -39 -61 -49 -75 -10 -14 -27 -43 -39 -65 -12 -22 -33 -58 -46 -80 -69
-114 -182 -346 -205 -420 -7 -22 -19 -49 -26 -60 -6 -11 -15 -36 -19 -55 -4
-19 -16 -53 -26 -75 -32 -72 -97 -303 -120 -430 -6 -27 -19 -93 -30 -145 -21
-104 -39 -312 -39 -457 0 -50 -4 -102 -9 -115 -4 -13 -4 -52 0 -88 5 -36 13
-153 18 -260 6 -111 19 -236 30 -290 10 -52 23 -120 29 -150 21 -121 89 -362
122 -435 9 -22 21 -56 25 -75 4 -19 13 -44 19 -55 7 -11 19 -38 26 -60 7 -22
21 -53 31 -70 11 -16 19 -37 19 -45 0 -8 7 -28 16 -45 9 -16 36 -68 61 -115
25 -47 57 -106 72 -131 14 -25 36 -64 48 -87 23 -42 66 -108 82 -128 4 -5 14
-21 21 -35 7 -13 22 -36 34 -51 12 -15 44 -57 71 -93 160 -210 425 -484 605
-626 69 -54 136 -108 150 -119 14 -12 52 -39 85 -61 33 -21 71 -46 85 -56 14
-9 43 -28 65 -41 22 -14 52 -33 66 -43 15 -10 38 -21 52 -24 14 -4 33 -15 43
-26 9 -10 22 -19 28 -19 12 0 161 -74 180 -89 6 -5 22 -12 36 -16 14 -4 43
-15 65 -26 83 -38 184 -79 195 -79 6 0 31 -9 54 -20 24 -10 65 -24 91 -30 26
-6 59 -17 74 -24 14 -7 44 -16 66 -20 22 -4 68 -16 101 -26 34 -10 99 -24 145
-30 46 -6 95 -16 109 -22 14 -5 111 -19 215 -31 339 -37 826 -22 1059 32 45
11 104 22 131 26 69 8 295 71 425 117 30 10 77 26 104 34 27 9 59 22 70 29 12
7 35 16 53 20 17 3 37 13 43 21 7 7 31 19 54 25 22 6 48 17 57 25 8 7 31 19
50 25 19 7 40 17 47 22 8 6 50 29 95 51 45 23 93 49 107 59 14 10 50 34 80 53
30 18 62 38 70 44 8 6 38 25 66 43 63 40 81 54 262 203 156 128 356 331 497
504 47 58 91 112 98 120 16 18 157 233 181 275 10 17 28 48 42 70 13 22 35 63
49 90 14 28 30 57 35 65 70 109 269 628 270 702 1 13 8 41 16 63 34 92 75 337
59 354 -3 2 -332 5 -732 5 l-727 1 -23 -34 c-13 -19 -28 -52 -33 -75 -27 -108
-141 -371 -185 -426 -6 -8 -17 -29 -24 -47 -7 -18 -20 -38 -28 -45 -8 -7 -19
-21 -24 -33 -5 -11 -25 -40 -44 -65 -19 -25 -46 -61 -59 -80 -13 -19 -50 -64
-82 -99 -99 -109 -114 -123 -263 -248 -109 -92 -219 -166 -346 -232 -22 -11
-47 -25 -55 -30 -26 -16 -123 -58 -165 -71 -22 -7 -49 -19 -60 -26 -11 -6 -44
-17 -73 -23 -29 -6 -65 -17 -80 -25 -15 -7 -47 -17 -72 -21 -25 -4 -81 -17
-125 -28 -74 -20 -103 -22 -405 -22 -241 0 -337 4 -370 14 -25 7 -81 21 -125
31 -150 33 -392 120 -475 171 -8 5 -37 20 -65 34 -122 61 -250 150 -404 280
-13 11 -69 65 -123 119 -107 108 -186 206 -263 329 -28 43 -59 93 -70 110 -12
18 -27 48 -35 67 -7 19 -19 42 -27 51 -7 8 -13 19 -13 24 0 4 -13 35 -29 69
-58 123 -125 330 -136 421 -4 28 -13 76 -21 107 -20 80 -32 305 -23 453 12
203 58 419 130 607 16 42 29 81 29 86 0 9 97 204 130 262 88 154 251 361 382
485 146 139 373 300 508 360 19 8 44 21 55 27 64 36 153 74 205 88 25 7 50 16
56 21 6 4 35 13 65 20 30 6 81 19 114 29 179 55 582 78 775 45 256 -43 441
-92 555 -145 22 -10 74 -33 115 -51 41 -18 84 -40 95 -50 11 -9 31 -20 44 -24
13 -4 56 -28 95 -54 39 -26 82 -55 96 -63 33 -21 221 -180 287 -243 61 -59 99
-103 204 -240 113 -148 193 -292 290 -525 10 -25 24 -67 30 -95 17 -72 46
-124 72 -130 12 -3 342 -4 734 -3 543 2 715 6 724 15 10 10 10 21 1 52 -7 22
-21 86 -32 143 -36 188 -134 512 -183 605 -9 18 -17 37 -17 44 0 7 -14 42 -31
78 -64 136 -134 277 -150 301 -28 44 -65 104 -93 150 -95 157 -135 210 -302
410 -106 126 -284 309 -394 405 -89 78 -209 175 -249 201 -24 16 -54 36 -66
44 -36 24 -78 52 -117 77 -21 12 -55 34 -76 48 -21 14 -43 25 -49 25 -6 0 -16
6 -22 14 -13 16 -301 160 -363 182 -23 8 -46 18 -52 23 -24 20 -218 86 -421
145 -156 44 -207 56 -330 76 -66 10 -163 26 -215 35 -112 19 -589 28 -767 15z"/>
<path d="M876 6672 c-9 -2 -21 -15 -27 -28 -15 -40 -12 -4757 3 -4772 9 -9
556 -12 2402 -12 1315 0 2396 4 2403 8 8 5 12 148 14 536 l3 528 -24 13 c-18
10 -132 13 -486 13 -446 1 -464 2 -503 21 -22 12 -45 21 -51 21 -11 0 -46 14
-215 87 -382 164 -740 387 -1104 688 -102 84 -437 414 -511 504 -25 29 -52 61
-60 70 -9 9 -31 38 -50 65 -19 26 -44 58 -55 70 -12 11 -30 34 -40 50 -11 16
-29 41 -40 56 -11 15 -37 54 -59 86 -21 33 -47 70 -57 84 -10 14 -26 39 -35
55 -9 17 -20 32 -24 35 -4 3 -17 23 -29 45 -12 22 -44 81 -71 130 -43 77 -112
214 -191 380 -10 22 -25 60 -34 84 -8 24 -19 49 -24 55 -5 6 -16 34 -24 62 -8
28 -22 65 -31 82 -14 27 -16 91 -17 489 0 252 -4 467 -8 477 -7 19 -23 20
-522 20 -283 1 -523 -1 -533 -2z m1129 -2849 c193 -233 506 -548 738 -742 92
-78 115 -105 96 -117 -20 -12 -870 -6 -885 7 -12 9 -14 86 -14 434 0 233 3
430 6 439 9 25 26 19 59 -21z"/>
<path d="M10514 6655 c-11 -16 -14 -104 -14 -480 0 -387 -2 -465 -15 -488 -8
-16 -21 -50 -29 -75 -15 -49 -66 -175 -84 -208 -6 -10 -25 -50 -42 -89 -17
-38 -37 -81 -45 -95 -7 -14 -34 -65 -60 -115 -25 -49 -57 -108 -70 -130 -14
-22 -36 -60 -50 -85 -35 -61 -110 -177 -128 -198 -8 -9 -22 -30 -31 -47 -26
-48 -188 -261 -253 -332 -21 -23 -56 -63 -78 -88 -71 -82 -341 -345 -457 -446
-44 -38 -267 -210 -320 -247 -91 -63 -258 -171 -291 -188 -20 -10 -85 -46
-144 -80 -118 -66 -281 -147 -383 -189 -36 -15 -85 -35 -110 -46 -25 -10 -75
-30 -113 -44 l-67 -26 -458 0 c-360 0 -462 -2 -481 -13 l-23 -13 0 -528 c1
-421 4 -530 14 -536 7 -5 1093 -8 2413 -6 l2400 2 5 2375 c3 1306 1 2387 -3
2403 -10 32 61 28 -601 30 -456 2 -469 1 -482 -18z m-14 -3245 c0 -363 -2
-429 -15 -440 -20 -16 -860 -19 -876 -3 -9 9 -5 20 16 45 15 18 35 38 44 43 9
6 36 28 60 50 25 22 88 79 141 127 117 105 292 280 375 373 33 37 71 80 85 96
14 15 38 42 53 61 15 18 42 47 60 65 57 58 57 57 57 -417z"/>
<path d="M2965 1401 c-75 -12 -201 -57 -243 -88 -70 -51 -159 -149 -190 -210
-36 -71 -72 -240 -72 -338 0 -90 36 -269 67 -329 73 -143 179 -238 323 -286
91 -31 102 -32 265 -33 107 -1 183 3 205 10 140 47 207 87 271 162 56 67 84
118 111 204 l16 47 -29 24 c-17 14 -61 32 -111 44 -46 11 -101 27 -123 36 -22
8 -54 15 -72 16 -31 0 -34 -4 -66 -72 -29 -64 -90 -137 -115 -138 -4 -1 -27
-5 -51 -9 -55 -11 -145 10 -179 42 -13 12 -36 45 -50 72 -25 47 -27 58 -27
195 0 131 2 150 23 196 32 71 75 109 142 127 110 28 197 -11 252 -112 10 -17
25 -34 34 -38 9 -3 58 4 108 16 50 12 118 26 150 31 99 16 110 47 56 152 -66
126 -154 204 -286 249 -79 27 -104 31 -224 34 -74 2 -157 0 -185 -4z"/>
<path d="M5049 1390 c-459 -4 -569 -8 -582 -19 -14 -11 -17 -36 -17 -157 0
-103 3 -145 13 -151 6 -4 88 -9 182 -11 123 -1 173 -6 182 -15 11 -10 13 -101
14 -430 0 -267 4 -427 10 -447 l11 -30 188 0 188 0 16 25 c14 21 16 74 16 432
0 308 3 414 13 433 12 25 13 25 183 30 126 4 175 9 188 19 14 12 16 33 14 147
-2 130 -3 135 -27 156 l-26 23 -566 -5z"/>
<path d="M11024 1392 l-501 -2 -11 -26 c-17 -36 -17 -1172 0 -1209 l11 -25
518 0 c457 0 519 2 533 16 24 23 28 53 24 169 -3 92 -6 109 -22 121 -16 11
-75 14 -311 14 -342 0 -335 -2 -335 86 0 54 12 91 34 107 6 4 128 7 270 6 201
0 262 3 272 13 8 8 15 51 18 120 4 96 3 110 -15 133 l-20 25 -264 0 c-261 0
-264 0 -279 22 -22 31 -20 80 4 106 20 22 26 22 304 22 342 0 317 -11 317 142
0 102 -11 154 -35 160 -6 2 -236 2 -512 0z"/>
<path d="M1332 1351 c-22 -38 -33 -68 -87 -222 -13 -37 -28 -75 -34 -85 -6
-11 -17 -37 -25 -59 -8 -22 -28 -76 -46 -120 -17 -44 -40 -102 -50 -130 -10
-27 -33 -86 -50 -130 -17 -44 -40 -102 -50 -130 -10 -27 -33 -86 -50 -130 -59
-150 -62 -160 -51 -188 l11 -27 187 0 188 1 28 36 c15 20 27 46 27 58 0 43 21
83 49 95 19 7 86 10 201 8 196 -3 201 -6 214 -93 4 -26 18 -58 32 -75 l26 -30
189 0 188 0 16 31 c11 20 13 34 7 42 -6 7 -14 28 -20 47 -11 37 -45 124 -68
175 -8 17 -23 55 -33 85 -11 30 -31 87 -46 125 -15 39 -35 93 -45 120 -10 28
-26 64 -34 80 -9 17 -16 37 -16 45 0 9 -9 33 -20 54 -11 22 -27 62 -36 90 -9
28 -20 56 -24 61 -5 6 -15 33 -23 62 -9 28 -22 62 -30 75 -8 12 -18 40 -21 61
-4 20 -21 53 -38 72 l-30 35 -207 0 -207 0 -22 -39z m246 -443 c15 -20 72
-192 72 -220 0 -14 -6 -30 -13 -36 -18 -15 -134 -19 -148 -5 -22 22 -9 88 52
251 10 25 22 28 37 10z"/>
<path d="M5982 1370 l-22 -21 0 -583 c0 -575 0 -584 21 -610 l20 -26 179 0
c173 0 179 1 194 22 13 19 16 59 16 234 0 233 2 242 58 229 41 -9 74 -54 177
-240 49 -88 101 -179 117 -202 l29 -43 209 0 210 0 16 24 c15 24 13 29 -37
123 -29 54 -64 120 -78 147 -14 27 -33 62 -42 79 -16 31 -39 62 -74 101 -30
34 -67 87 -63 91 1 1 17 10 35 19 18 9 56 41 86 71 92 94 121 237 75 371 -27
77 -89 148 -158 181 -82 40 -148 46 -555 50 -384 4 -391 4 -413 -17z m680
-302 c51 -40 52 -80 3 -128 -34 -33 -36 -33 -141 -38 -96 -4 -109 -3 -121 14
-15 21 -18 121 -4 158 11 29 35 33 151 28 65 -3 79 -8 112 -34z"/>
<path d="M7827 1370 c-14 -11 -29 -35 -33 -52 -3 -18 -13 -43 -21 -55 -8 -12
-19 -37 -23 -55 -10 -38 -54 -150 -75 -191 -8 -16 -15 -33 -15 -38 0 -10 -55
-156 -89 -239 -11 -25 -33 -83 -51 -130 -17 -47 -37 -98 -44 -115 -24 -53 -76
-191 -76 -201 0 -5 -12 -32 -26 -61 -26 -50 -26 -53 -10 -78 l16 -25 183 0
c207 0 221 4 233 68 9 50 40 109 63 122 25 13 331 13 365 0 15 -5 28 -20 32
-37 4 -15 20 -56 35 -90 l28 -63 193 0 c106 0 198 4 204 8 21 13 26 52 11 76
-8 12 -22 46 -31 76 -9 29 -20 58 -25 64 -4 6 -16 36 -26 66 -10 30 -24 64
-31 75 -6 11 -15 36 -19 55 -4 19 -13 46 -21 60 -7 14 -27 61 -43 105 -85 226
-103 272 -111 290 -5 11 -25 63 -45 115 -20 52 -44 115 -54 140 -11 25 -25 60
-31 78 -7 18 -21 37 -31 42 -10 6 -105 10 -212 10 -180 0 -196 -2 -220 -20z
m267 -552 c10 -40 24 -87 32 -104 13 -25 13 -36 5 -53 -10 -18 -21 -21 -84
-21 -44 0 -78 5 -85 12 -16 16 -15 53 3 88 8 16 22 60 31 97 8 37 18 71 20 75
3 4 18 1 33 -7 24 -12 31 -25 45 -87z"/>
<path d="M9009 1374 c-20 -24 -26 -1175 -6 -1214 l13 -25 314 -3 c286 -2 323
0 414 19 56 11 126 33 156 47 76 37 179 142 218 223 84 175 80 510 -9 689 -37
73 -129 171 -199 212 -90 52 -162 61 -541 65 -318 4 -347 3 -360 -13z m644
-341 c22 -15 50 -49 65 -77 26 -49 27 -57 27 -206 0 -175 -9 -204 -81 -263
-35 -29 -41 -31 -129 -31 -65 -1 -97 3 -109 13 -15 13 -17 39 -13 295 3 155 5
282 6 284 5 13 59 21 121 17 59 -4 82 -11 113 -32z"/>
</g>
</svg>
